<svg width="23" height="23" viewBox="0 0 23 23" fill="none" xmlns="http://www.w3.org/2000/svg">
<path d="M11.6364 0.339355C9.41889 0.339355 7.25114 0.996935 5.40732 2.22894C3.5635 3.46094 2.12641 5.21204 1.27779 7.26078C0.429174 9.30953 0.207137 11.5639 0.639759 13.7389C1.07238 15.9138 2.14023 17.9116 3.70828 19.4796C5.27632 21.0477 7.27413 22.1155 9.44906 22.5482C11.624 22.9808 13.8784 22.7587 15.9271 21.9101C17.9759 21.0615 19.727 19.6244 20.959 17.7806C22.191 15.9368 22.8486 13.769 22.8486 11.5515C22.8455 8.57877 21.6633 5.72869 19.5612 3.62667C17.4592 1.52465 14.6091 0.3424 11.6364 0.339355ZM18.5362 18.0718C17.7343 16.9985 16.693 16.1272 15.4952 15.5269C14.2975 14.9267 12.9762 14.6142 11.6364 14.6142C10.2967 14.6142 8.97541 14.9267 7.77763 15.5269C6.57986 16.1272 5.53861 16.9985 4.73667 18.0718C3.46487 16.7241 2.61555 15.0335 2.29358 13.2087C1.9716 11.3839 2.19107 9.50472 2.92489 7.8032C3.6587 6.10169 4.87473 4.65231 6.42286 3.63401C7.97099 2.61571 9.78343 2.07306 11.6364 2.07306C13.4894 2.07306 15.3019 2.61571 16.85 3.63401C18.3981 4.65231 19.6142 6.10169 20.348 7.8032C21.0818 9.50472 21.3013 11.3839 20.9793 13.2087C20.6573 15.0335 19.808 16.7241 18.5362 18.0718Z" fill="#F6BD00"/>
</svg>
